<svg viewBox="0 0 780 344" xmlns="http://www.w3.org/2000/svg" font-family="var(--sans, ui-sans-serif, system-ui, sans-serif)" role="img" aria-label="Of 34 approvals that left the queue between 12 and 25 August 2026, 19 had a building permit applied for and 15 lapsed unrecoverably.">
<text x="52" y="16" font-size="12" fill="var(--color-text-muted, #6b6b6b)">34 approvals left the queue in 13 days. They left in two directions.</text>
<rect x="52" y="26" width="307.4" height="22" fill="var(--color-gray-200, #d8d5cc)"/>
<rect x="359.4" y="26" width="242.6" height="22" fill="var(--color-primary, #a8412a)"/>
<text x="59" y="41" font-size="12.5" fill="#1a1a1a">19 &#183; building permit applied</text>
<text x="366.4" y="41" font-size="12.5" fill="#fffff8">15 &#183; lapsed</text>
<text x="612" y="41" font-size="11.5" fill="var(--color-text-muted, #6b6b6b)">saved / lost</text>
<text x="12" y="84" font-size="12.5" fill="var(--color-text-muted, #6b6b6b)">Lapsed — the one-way door</text>
<line x1="44" y1="96" x2="44" y2="152" stroke="var(--color-gray-200, #d8d5cc)" stroke-width="1"/>
<polyline points="52.0,152.0 136.6,152.0 178.9,152.0 221.2,144.5 263.5,144.5 305.8,144.5 348.2,144.5 390.5,125.9 432.8,122.1 475.1,107.2 517.4,103.5 602.0,96.0" fill="none" stroke="var(--color-primary, #a8412a)" stroke-width="1.6" stroke-linejoin="round" stroke-linecap="round"/>
<circle cx="52.0" cy="152.0" r="1.9" fill="var(--color-primary, #a8412a)"/>
<circle cx="136.6" cy="152.0" r="1.9" fill="var(--color-primary, #a8412a)"/>
<circle cx="178.9" cy="152.0" r="1.9" fill="var(--color-primary, #a8412a)"/>
<circle cx="221.2" cy="144.5" r="1.9" fill="var(--color-primary, #a8412a)"/>
<circle cx="263.5" cy="144.5" r="1.9" fill="var(--color-primary, #a8412a)"/>
<circle cx="305.8" cy="144.5" r="1.9" fill="var(--color-primary, #a8412a)"/>
<circle cx="348.2" cy="144.5" r="1.9" fill="var(--color-primary, #a8412a)"/>
<circle cx="390.5" cy="125.9" r="1.9" fill="var(--color-primary, #a8412a)"/>
<circle cx="432.8" cy="122.1" r="1.9" fill="var(--color-primary, #a8412a)"/>
<circle cx="475.1" cy="107.2" r="1.9" fill="var(--color-primary, #a8412a)"/>
<circle cx="517.4" cy="103.5" r="1.9" fill="var(--color-primary, #a8412a)"/>
<circle cx="602.0" cy="96.0" r="1.9" fill="var(--color-primary, #a8412a)"/>
<text x="41.0" y="156.0" font-size="12" text-anchor="end" fill="var(--color-text-muted, #6b6b6b)">3</text>
<text x="612.0" y="100.0" font-size="14" fill="var(--color-primary, #a8412a)">18</text>
<text x="612.0" y="115.0" font-size="11" fill="var(--color-text-muted, #6b6b6b)">up 15, none recoverable</text>
<text x="12" y="184" font-size="12.5" fill="var(--color-text-muted, #6b6b6b)">Still saveable</text>
<line x1="44" y1="196" x2="44" y2="252" stroke="var(--color-gray-200, #d8d5cc)" stroke-width="1"/>
<polyline points="52.0,196.0 136.6,197.7 178.9,202.8 221.2,207.9 263.5,207.9 305.8,209.6 348.2,219.8 390.5,228.2 432.8,235.0 475.1,241.8 517.4,243.5 602.0,252.0" fill="none" stroke="var(--color-text-muted, #6b6b6b)" stroke-width="1.6" stroke-linejoin="round" stroke-linecap="round"/>
<circle cx="52.0" cy="196.0" r="1.9" fill="var(--color-text-muted, #6b6b6b)"/>
<circle cx="136.6" cy="197.7" r="1.9" fill="var(--color-text-muted, #6b6b6b)"/>
<circle cx="178.9" cy="202.8" r="1.9" fill="var(--color-text-muted, #6b6b6b)"/>
<circle cx="221.2" cy="207.9" r="1.9" fill="var(--color-text-muted, #6b6b6b)"/>
<circle cx="263.5" cy="207.9" r="1.9" fill="var(--color-text-muted, #6b6b6b)"/>
<circle cx="305.8" cy="209.6" r="1.9" fill="var(--color-text-muted, #6b6b6b)"/>
<circle cx="348.2" cy="219.8" r="1.9" fill="var(--color-text-muted, #6b6b6b)"/>
<circle cx="390.5" cy="228.2" r="1.9" fill="var(--color-text-muted, #6b6b6b)"/>
<circle cx="432.8" cy="235.0" r="1.9" fill="var(--color-text-muted, #6b6b6b)"/>
<circle cx="475.1" cy="241.8" r="1.9" fill="var(--color-text-muted, #6b6b6b)"/>
<circle cx="517.4" cy="243.5" r="1.9" fill="var(--color-text-muted, #6b6b6b)"/>
<circle cx="602.0" cy="252.0" r="1.9" fill="var(--color-text-muted, #6b6b6b)"/>
<text x="41.0" y="200.0" font-size="12" text-anchor="end" fill="var(--color-text-muted, #6b6b6b)">1,364</text>
<text x="612.0" y="256.0" font-size="14" fill="var(--color-text-muted, #6b6b6b)">1,331</text>
<text x="612.0" y="271.0" font-size="11" fill="var(--color-text-muted, #6b6b6b)">down 33</text>
<line x1="52.0" y1="272" x2="602.0" y2="272" stroke="var(--color-gray-200, #d8d5cc)" stroke-width="1"/>
<line x1="52.0" y1="272" x2="52.0" y2="276" stroke="var(--color-gray-200, #d8d5cc)" stroke-width="1"/>
<line x1="136.6" y1="272" x2="136.6" y2="276" stroke="var(--color-gray-200, #d8d5cc)" stroke-width="1"/>
<line x1="178.9" y1="272" x2="178.9" y2="276" stroke="var(--color-gray-200, #d8d5cc)" stroke-width="1"/>
<line x1="221.2" y1="272" x2="221.2" y2="276" stroke="var(--color-gray-200, #d8d5cc)" stroke-width="1"/>
<line x1="263.5" y1="272" x2="263.5" y2="276" stroke="var(--color-gray-200, #d8d5cc)" stroke-width="1"/>
<line x1="305.8" y1="272" x2="305.8" y2="276" stroke="var(--color-gray-200, #d8d5cc)" stroke-width="1"/>
<line x1="348.2" y1="272" x2="348.2" y2="276" stroke="var(--color-gray-200, #d8d5cc)" stroke-width="1"/>
<line x1="390.5" y1="272" x2="390.5" y2="276" stroke="var(--color-gray-200, #d8d5cc)" stroke-width="1"/>
<line x1="432.8" y1="272" x2="432.8" y2="276" stroke="var(--color-gray-200, #d8d5cc)" stroke-width="1"/>
<line x1="475.1" y1="272" x2="475.1" y2="276" stroke="var(--color-gray-200, #d8d5cc)" stroke-width="1"/>
<line x1="517.4" y1="272" x2="517.4" y2="276" stroke="var(--color-gray-200, #d8d5cc)" stroke-width="1"/>
<line x1="602.0" y1="272" x2="602.0" y2="276" stroke="var(--color-gray-200, #d8d5cc)" stroke-width="1"/>
<text x="52.0" y="290" font-size="11.5" fill="var(--color-text-muted, #6b6b6b)">12 Aug</text>
<text x="602.0" y="290" font-size="11.5" text-anchor="end" fill="var(--color-text-muted, #6b6b6b)">25 Aug</text>
<line x1="94.3" y1="267" x2="94.3" y2="277" stroke="var(--color-primary, #a8412a)" stroke-width="1.1" stroke-dasharray="1.5 1.5"/>
<line x1="559.7" y1="267" x2="559.7" y2="277" stroke="var(--color-primary, #a8412a)" stroke-width="1.1" stroke-dasharray="1.5 1.5"/>
<text x="12" y="308" font-size="11" fill="var(--color-text-muted, #6b6b6b)">One mark per run day. 21 runs over 12 days — ten of them on the 12th, while I was building it. Dashed: the 13th and 24th, when the job did not fire.</text>
</svg>
